<?xml version="1.0" encoding="UTF-8"?> <svg xmlns="http://www.w3.org/2000/svg" width="210" height="60" viewBox="0 0 210 60" fill="none"><path d="M26.8659 47.9689H10.1984V1.43907C10.1984 0.664184 9.55148 0 8.7143 0H1.44604C0.646913 0 0 0.627285 0 1.43907V56.4926C0 57.2675 0.646913 57.8947 1.44604 57.8947H26.8659C27.665 57.8947 28.35 57.2675 28.35 56.4926V49.4079C28.35 48.6331 27.665 47.9689 26.8659 47.9689Z" fill="#27251F"></path><path d="M119.7 23.1579C123.167 23.1579 126 20.3177 126 16.8421C126 13.3666 123.167 10.5263 119.7 10.5263C116.234 10.5263 113.4 13.3666 113.4 16.8421C113.4 20.355 116.234 23.1579 119.7 23.1579Z" fill="#E30920"></path><path d="M110.25 32.6316C113.13 32.6316 115.5 30.2558 115.5 27.3684C115.5 24.481 113.13 22.1053 110.25 22.1053C107.333 22.1053 105 24.4444 105 27.3684C105 30.2924 107.37 32.6316 110.25 32.6316Z" fill="#E30920"></path><path fill-rule="evenodd" clip-rule="evenodd" d="M89.5308 15.7895C90.5563 15.7895 91.9482 16.4224 92.6074 17.2042L126.67 56.4801C127.366 57.2619 127.073 57.8947 126.048 57.8947H113.118C112.093 57.8947 110.701 57.2619 110.042 56.4801L75.9789 17.2042C75.283 16.4224 75.576 15.7895 76.6016 15.7895H89.5308ZM96.8561 36.8235C96.8561 39.355 98.8706 41.3654 101.325 41.3654C103.779 41.3654 105.756 39.355 105.793 36.8235C105.793 34.292 103.779 32.2816 101.325 32.2816C98.8706 32.2816 96.8561 34.3292 96.8561 36.8235Z" fill="#27251F"></path><path d="M92.925 44.2105C90.9037 44.2105 89.25 45.8684 89.25 47.8947C89.25 49.9211 90.9037 51.5789 92.925 51.5789C94.9462 51.5789 96.6 49.9211 96.6 47.8947C96.5633 45.8316 94.9462 44.2105 92.925 44.2105Z" fill="#E30920"></path><path d="M83.9992 53.6842C82.2669 53.6842 80.8496 55.1053 80.8496 56.8421C80.8496 58.5789 82.2669 60 83.9992 60C85.7315 60 87.1488 58.5789 87.1488 56.8421C87.1882 55.1053 85.7709 53.6842 83.9992 53.6842Z" fill="#E30920"></path><path fill-rule="evenodd" clip-rule="evenodd" d="M163.207 16.6309H169.713C170.507 16.6309 171.15 17.281 171.15 18.0841V57.7818C171.15 58.6232 170.507 59.2734 169.713 59.2734H163.207C162.375 59.2734 161.732 58.585 161.732 57.7818V55.7931C157.988 58.5085 153.563 60 148.911 60C136.846 60 127.05 50.0947 127.05 37.8947C127.05 25.6948 136.846 15.7895 148.911 15.7895C153.563 15.7895 157.988 17.2428 161.732 19.9964V18.1224C161.732 17.281 162.413 16.6309 163.207 16.6309ZM136.505 37.78C136.505 45.1612 142.141 51.1273 149.024 51.1273C155.908 51.1273 161.543 45.1229 161.543 37.78C161.543 30.3988 155.946 24.4327 149.024 24.4327C142.141 24.4327 136.505 30.3988 136.505 37.78Z" fill="#27251F"></path><path fill-rule="evenodd" clip-rule="evenodd" d="M31.5 37.8947C31.5 25.6948 41.1453 15.7895 53.025 15.7895C64.9047 15.7895 74.55 25.6948 74.55 37.933C74.55 38.9656 74.4755 39.9599 74.3266 40.9543H41.108C42.3742 46.8439 47.29 51.242 53.0995 51.242C56.3022 51.242 59.2069 49.9035 61.4041 47.7235C61.6276 47.5323 61.9255 47.3793 62.2606 47.3793C62.4096 47.3793 62.5586 47.3793 62.7075 47.4558L68.9639 50.1712C69.4108 50.3624 69.7087 50.8213 69.7087 51.3568C69.7087 51.6627 69.6343 51.8922 69.4853 52.1217C65.5378 56.9404 59.6538 60 53.025 60C41.1453 60 31.5 50.0947 31.5 37.8947ZM53.0995 24.5092C47.9231 24.5092 43.4914 27.9512 41.6667 32.8465H64.5323C62.7075 27.9512 58.2759 24.5092 53.0995 24.5092Z" fill="#27251F"></path><path d="M200.665 15.7895C198.302 15.7895 194.339 15.9007 191.138 19.0141V18.0504C191.138 17.2721 190.491 16.6049 189.691 16.6049H183.136C182.336 16.6049 181.65 17.235 181.65 18.0504V56.4863C181.65 57.2646 182.298 57.8947 183.098 57.8947H189.652C190.453 57.8947 191.1 57.2646 191.1 56.4492V36.2491C191.1 32.5056 191.443 29.7257 192.739 27.7242C194.225 25.4262 196.778 24.166 199.064 24.166C199.865 24.166 201.122 24.2772 202.113 24.685C203.37 25.2039 204.17 26.1675 204.17 26.1675L210 19.7554C209.086 18.8288 207.676 17.8651 206.914 17.4574C204.818 16.2713 202.875 15.7895 200.665 15.7895Z" fill="#27251F"></path></svg> 